# Blender v2.79 (sub 0) OBJ File: ''
# www.blender.org
mtllib plasticExplosves.mtl
o plastic_explosives_plastic_explosives_mesh
v -0.116025 0.088108 0.086405
v -0.126220 0.077913 0.086405
v -0.126220 0.009797 0.086405
v -0.116025 -0.000398 0.086405
v 0.116025 -0.000398 0.086405
v 0.126220 0.009797 0.086405
v 0.126220 0.077913 0.086405
v 0.116025 0.088108 0.086405
v -0.126220 0.077913 -0.079554
v -0.126220 0.009797 -0.079554
v -0.116025 -0.000398 -0.079554
v 0.116025 -0.000398 -0.079554
v 0.116025 0.088108 -0.079554
v 0.126220 0.077913 -0.079554
v 0.126220 0.009797 -0.079554
v -0.116025 0.088108 -0.079554
v -0.114150 0.078956 0.207141
v -0.114150 0.008099 0.207141
v 0.114150 0.008099 0.207141
v 0.114150 0.078956 0.207141
v -0.123238 0.078956 -0.198053
v -0.123238 0.008099 -0.198053
v -0.123238 0.008099 0.198053
v -0.123238 0.078956 0.198053
v -0.114150 0.002321 -0.198053
v 0.114150 0.002321 -0.198053
v 0.114150 0.002321 0.198053
v -0.114150 0.002321 0.198053
v 0.123238 0.078956 0.198053
v 0.123238 0.008099 0.198053
v 0.123238 0.008099 -0.198053
v 0.123238 0.078956 -0.198053
v 0.114150 0.078956 -0.207141
v 0.114150 0.008099 -0.207141
v -0.114150 0.008099 -0.207141
v -0.114150 0.078956 -0.207141
v 0.114150 0.084734 0.198053
v 0.114150 0.084734 -0.198053
v -0.114150 0.084734 0.198053
v -0.114150 0.084734 -0.198053
vt 0.769521 0.592301
vt 0.769521 0.675652
vt 0.500963 0.675652
vt 0.500963 0.592301
vt 0.483281 0.808133
vt 0.483281 0.891484
vt 0.017327 0.891484
vt 0.017327 0.808133
vt 0.483281 0.521892
vt 0.483281 0.790451
vt 0.017327 0.790451
vt 0.017327 0.521893
vt 0.500963 0.319004
vt 0.500963 0.235652
vt 0.966917 0.235652
vt 0.966917 0.319004
vt 0.500963 0.776686
vt 0.500963 0.693334
vt 0.769521 0.693334
vt 0.769521 0.776686
vt 0.821613 0.440407
vt 0.821613 0.427738
vt 0.833745 0.436760
vt 0.802325 0.796871
vt 0.794765 0.807037
vt 0.787206 0.796871
vt 0.821613 0.410056
vt 0.821613 0.397388
vt 0.833745 0.406409
vt 0.794765 0.824719
vt 0.802325 0.834885
vt 0.787206 0.834885
vt 0.827567 0.824719
vt 0.835126 0.834885
vt 0.820007 0.834885
vt 0.821613 0.349355
vt 0.821613 0.336686
vt 0.833745 0.345708
vt 0.827567 0.796871
vt 0.835126 0.807037
vt 0.820007 0.807037
vt 0.821613 0.379706
vt 0.821613 0.367037
vt 0.833745 0.376058
vt 0.966912 0.952186
vt 0.500961 0.952186
vt 0.500961 0.939517
vt 0.966912 0.939517
vt 0.835124 0.693334
vt 0.835124 0.776686
vt 0.820004 0.776686
vt 0.820004 0.693334
vt 0.017327 0.909166
vt 0.483279 0.909166
vt 0.483279 0.921835
vt 0.017327 0.921835
vt 0.787203 0.776686
vt 0.787203 0.693334
vt 0.802322 0.693334
vt 0.802322 0.776686
vt 0.285887 0.982537
vt 0.017327 0.982537
vt 0.017327 0.969868
vt 0.285887 0.969869
vt 0.500963 0.794369
vt 0.769524 0.794368
vt 0.769524 0.807037
vt 0.500963 0.807037
vt 0.820004 0.675652
vt 0.820004 0.592301
vt 0.835124 0.592301
vt 0.835124 0.675652
vt 0.017327 0.939517
vt 0.483278 0.939517
vt 0.483278 0.952186
vt 0.017327 0.952186
vt 0.966915 0.921835
vt 0.500963 0.921835
vt 0.500963 0.909166
vt 0.966915 0.909166
vt 0.787203 0.675652
vt 0.787203 0.592301
vt 0.802322 0.592301
vt 0.802323 0.675652
vt 0.500963 0.855071
vt 0.769524 0.855070
vt 0.769524 0.867739
vt 0.500963 0.867739
vt 0.769524 0.837388
vt 0.500963 0.837389
vt 0.500963 0.824720
vt 0.769524 0.824719
vt 0.483281 0.235652
vt 0.483281 0.504210
vt 0.017327 0.504210
vt 0.017327 0.235652
vt 0.790177 0.464493
vt 0.803931 0.478247
vt 0.803931 0.560865
vt 0.790177 0.574619
vt 0.514717 0.574619
vt 0.500963 0.560865
vt 0.500963 0.478247
vt 0.514716 0.464494
vt 0.414306 0.017463
vt 0.496925 0.017463
vt 0.496925 0.217970
vt 0.414306 0.217970
vt 0.516375 0.017463
vt 0.791836 0.017463
vt 0.791836 0.217970
vt 0.516375 0.217970
vt 0.514717 0.446811
vt 0.500963 0.433058
vt 0.500963 0.350439
vt 0.514717 0.336686
vt 0.790177 0.336686
vt 0.803931 0.350440
vt 0.803931 0.433058
vt 0.790177 0.446811
vt 0.099945 0.217970
vt 0.017327 0.217970
vt 0.017327 0.017463
vt 0.099945 0.017463
vt 0.119396 0.017463
vt 0.119396 0.217970
vt 0.811286 0.017463
vt 0.811286 0.217970
vt 0.394856 0.217970
vt 0.394856 0.017463
vn -0.3292 0.4283 0.8415
vn -0.3292 -0.4283 0.8415
vn 0.3292 -0.4283 0.8415
vn 0.3292 0.4283 0.8415
vn -0.8415 0.4283 -0.3292
vn -0.8415 -0.4283 -0.3292
vn -0.8415 -0.4284 0.3292
vn -0.8415 0.4283 0.3292
vn -0.2602 -0.9298 -0.2602
vn 0.2602 -0.9298 -0.2602
vn 0.2602 -0.9298 0.2602
vn -0.2602 -0.9298 0.2602
vn 0.8415 0.4283 0.3292
vn 0.8415 -0.4283 0.3292
vn 0.8415 -0.4284 -0.3292
vn 0.8415 0.4283 -0.3292
vn 0.3292 0.4283 -0.8415
vn 0.3292 -0.4283 -0.8415
vn -0.3292 -0.4283 -0.8415
vn -0.3292 0.4283 -0.8415
vn 0.2602 0.9298 0.2602
vn 0.2602 0.9298 -0.2602
vn -0.2602 0.9298 0.2602
vn -0.2602 0.9298 -0.2602
vn -0.2971 0.7173 0.6303
vn -0.7173 0.2971 0.6303
vn -0.7173 -0.2971 0.6303
vn -0.2971 -0.7173 0.6303
vn 0.2971 -0.7173 0.6303
vn 0.7173 -0.2971 0.6303
vn 0.7173 0.2971 0.6303
vn 0.2971 0.7173 0.6303
vn -0.7173 0.2971 -0.6303
vn -0.7173 -0.2971 -0.6303
vn -0.2971 -0.7173 -0.6303
vn 0.2971 -0.7173 -0.6303
vn 0.2971 0.7173 -0.6303
vn 0.7173 0.2971 -0.6303
vn 0.7173 -0.2971 -0.6303
vn -0.2971 0.7173 -0.6303
usemtl Material.001_NONE
s 1
f 17/1/1 18/2/2 19/3/3 20/4/4
f 21/5/5 22/6/6 23/7/7 24/8/8
f 25/9/9 26/10/10 27/11/11 28/12/12
f 29/13/13 30/14/14 31/15/15 32/16/16
f 33/17/17 34/18/18 35/19/19 36/20/20
f 37/21/21 20/22/4 29/23/13
f 19/24/3 27/25/11 30/26/14
f 38/27/22 32/28/16 33/29/17
f 26/30/10 34/31/18 31/32/15
f 39/33/23 24/34/8 17/35/1
f 28/36/12 18/37/2 23/38/7
f 40/39/24 36/40/20 21/41/5
f 25/42/9 22/43/6 35/44/19
f 38/45/22 37/46/21 29/47/13 32/48/16
f 20/49/4 19/50/3 30/51/14 29/52/13
f 27/53/11 26/54/10 31/55/15 30/56/14
f 34/57/18 33/58/17 32/59/16 31/60/15
f 40/61/24 38/62/22 33/63/17 36/64/20
f 26/65/10 25/66/9 35/67/19 34/68/18
f 22/69/6 21/70/5 36/71/20 35/72/19
f 39/73/23 40/74/24 21/75/5 24/76/8
f 25/77/9 28/78/12 23/79/7 22/80/6
f 18/81/2 17/82/1 24/83/8 23/84/7
f 37/85/21 39/86/23 17/87/1 20/88/4
f 28/89/12 27/90/11 19/91/3 18/92/2
f 38/93/22 40/94/24 39/95/23 37/96/21
usemtl Material.001
f 1/97/25 2/98/26 3/99/27 4/100/28 5/101/29 6/102/30 7/103/31 8/104/32
f 9/105/33 10/106/34 3/107/27 2/108/26
f 11/109/35 12/110/36 5/111/29 4/112/28
f 13/113/37 14/114/38 15/115/39 12/116/36 11/117/35 10/118/34 9/119/33 16/120/40
f 7/121/31 6/122/30 15/123/39 14/124/38
f 13/125/37 8/126/32 7/121/31 14/124/38
f 5/111/29 12/110/36 15/127/39 6/128/30
f 1/129/25 16/130/40 9/105/33 2/108/26
f 11/109/35 4/112/28 3/107/27 10/106/34
f 13/125/37 16/130/40 1/129/25 8/126/32
