# Blender v2.79 (sub 0) OBJ File: ''
# www.blender.org
mtllib RoadSection.mtl
o Plane
v -5.000000 0.000000 2.000000
v 5.000000 0.000000 2.000000
v -5.000000 0.000000 -2.000000
v 5.000000 0.000000 -2.000000
v -5.000000 0.068994 -0.666667
v -5.000000 0.068994 0.666667
v 5.000000 0.068994 0.666667
v 5.000000 0.068994 -0.666667
v -5.000000 0.090905 3.200000
v 5.000000 0.090905 3.200000
v 5.000000 0.090905 -3.200000
v -5.000000 0.090905 -3.200000
v -5.000000 0.003450 1.933333
v 5.000000 0.003450 1.933333
v 5.000000 0.003450 -1.933333
v -5.000000 0.003450 -1.933333
v -5.000000 0.090905 2.095998
v -5.000000 0.042906 2.000000
v -5.000000 0.076846 2.028117
v 5.000000 0.042906 2.000000
v 5.000000 0.090905 2.095998
v 5.000000 0.076846 2.028117
v 5.000000 0.090905 -2.095998
v 5.000000 0.042906 -2.000000
v 5.000000 0.076846 -2.028117
v -5.000000 0.042906 -2.000000
v -5.000000 0.090905 -2.095998
v -5.000000 0.076846 -2.028117
vn 0.0000 0.9987 -0.0517
vn 0.0000 0.7251 0.6886
vn 0.0000 0.9987 0.0517
vn 0.0000 0.9997 0.0258
vn 0.0000 0.9997 -0.0258
vn 0.0000 0.3390 0.9408
vn 0.0000 0.9948 0.1019
vn 0.0000 1.0000 0.0000
vn 0.0000 0.9948 -0.1019
vn 0.0000 0.7251 -0.6886
vn 0.0000 0.8569 -0.5155
vn 0.0000 0.3390 -0.9408
vn 0.0000 0.8569 0.5155
usemtl None
s 1
f 16//1 15//1 4//2 3//2
f 13//3 14//3 7//4 6//4
f 6//4 7//4 8//5 5//5
f 3//2 4//2 24//6 26//6
f 27//7 23//7 11//8 12//8
f 21//9 17//9 9//8 10//8
f 1//10 2//10 14//3 13//3
f 5//5 8//5 15//1 16//1
f 17//9 21//9 22//11 19//11
f 19//11 22//11 20//12 18//12
f 23//7 27//7 28//13 25//13
f 25//13 28//13 26//6 24//6
f 2//10 1//10 18//12 20//12
