# Blender v2.79 (sub 0) OBJ File: ''
# www.blender.org
mtllib bandage.mtl
o Bandage_bandage_mesh
v -0.200000 -0.043786 -0.043786
v -0.138301 -0.088388 -0.088388
v -0.181929 -0.075325 -0.075325
v 0.200000 -0.043786 -0.043786
v 0.138301 -0.088388 -0.088388
v 0.181929 -0.075325 -0.075325
v -0.200000 -0.057810 -0.022191
v -0.138301 -0.116698 -0.044796
v -0.181929 -0.099450 -0.038175
v 0.200000 -0.057810 -0.022191
v 0.138301 -0.116698 -0.044796
v 0.181929 -0.099450 -0.038175
v -0.200000 -0.061838 0.003241
v -0.138301 -0.124829 0.006542
v -0.181929 -0.106379 0.005575
v 0.200000 -0.061838 0.003241
v 0.138301 -0.124829 0.006542
v 0.181929 -0.106379 0.005575
v -0.200000 -0.055173 0.028112
v -0.138301 -0.111376 0.056749
v -0.181929 -0.094914 0.048361
v 0.200000 -0.055173 0.028112
v 0.138301 -0.111376 0.056749
v 0.181929 -0.094914 0.048361
v -0.200000 -0.038969 0.048123
v -0.138301 -0.078665 0.097143
v -0.181929 -0.067038 0.082786
v 0.200000 -0.038969 0.048123
v 0.138301 -0.078665 0.097143
v 0.181929 -0.067038 0.082786
v -0.200000 -0.016027 0.059813
v -0.138301 -0.032352 0.120741
v -0.181929 -0.027571 0.102895
v 0.200000 -0.016027 0.059813
v 0.138301 -0.032352 0.120741
v 0.181929 -0.027571 0.102895
v -0.200000 0.009687 0.061160
v -0.138301 0.019554 0.123461
v -0.181929 0.016664 0.105214
v 0.200000 0.009687 0.061160
v 0.138301 0.019554 0.123461
v 0.181929 0.016664 0.105214
v -0.200000 0.033725 0.051933
v -0.138301 0.068080 0.104834
v -0.181929 0.058018 0.089339
v 0.200000 0.033725 0.051933
v 0.138301 0.068080 0.104834
v 0.181929 0.058018 0.089339
v -0.200000 0.051933 0.033725
v -0.138301 0.104834 0.068080
v -0.181929 0.089339 0.058018
v 0.200000 0.051933 0.033725
v 0.138301 0.104834 0.068080
v 0.181929 0.089339 0.058018
v -0.200000 0.061160 0.009687
v -0.138301 0.123461 0.019554
v -0.181929 0.105214 0.016664
v 0.200000 0.061160 0.009687
v 0.138301 0.123461 0.019554
v 0.181929 0.105214 0.016664
v -0.200000 0.059813 -0.016027
v -0.138301 0.120741 -0.032352
v -0.181929 0.102895 -0.027571
v 0.200000 0.059813 -0.016027
v 0.138301 0.120741 -0.032352
v 0.181929 0.102895 -0.027571
v -0.200000 0.048123 -0.038969
v -0.138301 0.097143 -0.078665
v -0.181929 0.082786 -0.067038
v 0.200000 0.048123 -0.038969
v 0.138301 0.097143 -0.078665
v 0.181929 0.082785 -0.067038
v -0.200000 0.028112 -0.055173
v -0.138301 0.056749 -0.111376
v -0.181929 0.048361 -0.094914
v 0.200000 0.028112 -0.055173
v 0.138301 0.056749 -0.111376
v 0.181929 0.048361 -0.094914
v -0.200000 0.003241 -0.061838
v -0.138301 0.006542 -0.124829
v -0.181929 0.005575 -0.106379
v 0.200000 0.003241 -0.061838
v 0.138301 0.006542 -0.124829
v 0.181929 0.005575 -0.106379
v -0.200000 -0.022191 -0.057810
v -0.138301 -0.044796 -0.116698
v -0.181929 -0.038175 -0.099450
v 0.200000 -0.022191 -0.057810
v 0.138301 -0.044796 -0.116698
v 0.181929 -0.038175 -0.099450
vt 0.976019 0.017007
vt 0.976018 0.357234
vt 0.912084 0.357234
vt 0.912085 0.017007
vt 0.784216 0.017006
vt 0.784215 0.357233
vt 0.720281 0.357233
vt 0.720282 0.017006
vt 0.656347 0.357233
vt 0.656348 0.017006
vt 0.592413 0.357233
vt 0.592414 0.017006
vt 0.528479 0.357233
vt 0.528479 0.017006
vt 0.464545 0.357233
vt 0.464545 0.017006
vt 0.400611 0.357233
vt 0.400611 0.017006
vt 0.336676 0.357233
vt 0.336677 0.017005
vt 0.272742 0.357233
vt 0.272742 0.017005
vt 0.208808 0.357233
vt 0.208808 0.017005
vt 0.144874 0.357233
vt 0.144874 0.017005
vt 0.080940 0.357233
vt 0.080940 0.017005
vt 0.017006 0.357233
vt 0.017005 0.017005
vt 0.848151 0.017006
vt 0.848150 0.357233
vt 0.349193 0.910027
vt 0.306799 0.940829
vt 0.255542 0.951724
vt 0.204284 0.940829
vt 0.161890 0.910027
vt 0.135688 0.864646
vt 0.130211 0.812530
vt 0.146404 0.762692
vt 0.181468 0.723750
vt 0.229340 0.702436
vt 0.281743 0.702436
vt 0.329615 0.723750
vt 0.364679 0.762693
vt 0.380872 0.812530
vt 0.375395 0.864646
vt 0.973053 0.455517
vt 0.982995 0.521819
vt 0.925044 0.523399
vt 0.917181 0.471810
vt 0.865023 0.524542
vt 0.858945 0.491090
vt 0.482995 0.627675
vt 0.472039 0.695002
vt 0.414531 0.677854
vt 0.424436 0.627132
vt 0.359352 0.656854
vt 0.365786 0.624147
vt 0.974557 0.588630
vt 0.918436 0.574178
vt 0.861119 0.558080
vt 0.474811 0.560599
vt 0.419076 0.576628
vt 0.362106 0.591031
vt 0.947606 0.650448
vt 0.897874 0.620724
vt 0.847768 0.588971
vt 0.448001 0.498857
vt 0.399368 0.530082
vt 0.348934 0.560387
vt 0.904158 0.702030
vt 0.864986 0.659381
vt 0.826154 0.614686
vt 0.404712 0.447413
vt 0.367106 0.491231
vt 0.327470 0.534807
vt 0.847801 0.739018
vt 0.822480 0.686983
vt 0.798111 0.633103
vt 0.348508 0.410512
vt 0.325034 0.463279
vt 0.299539 0.516447
vt 0.783258 0.758312
vt 0.773902 0.701247
vt 0.765999 0.642703
vt 0.284058 0.391245
vt 0.276681 0.448557
vt 0.267487 0.506857
vt 0.715942 0.758312
vt 0.723319 0.700999
vt 0.732513 0.642699
vt 0.216742 0.391245
vt 0.226098 0.448309
vt 0.234001 0.506853
vt 0.651492 0.739044
vt 0.674966 0.686278
vt 0.700461 0.633109
vt 0.152199 0.410538
vt 0.177520 0.462574
vt 0.201889 0.516453
vt 0.595288 0.702144
vt 0.632894 0.658325
vt 0.672530 0.614749
vt 0.095842 0.447526
vt 0.135014 0.490176
vt 0.173846 0.534871
vt 0.551999 0.650699
vt 0.600632 0.619475
vt 0.651066 0.589170
vt 0.052394 0.499109
vt 0.102126 0.528833
vt 0.152233 0.560585
vt 0.525189 0.588957
vt 0.580924 0.572928
vt 0.637894 0.558525
vt 0.025443 0.560926
vt 0.081565 0.575379
vt 0.138882 0.591477
vt 0.517005 0.521881
vt 0.575564 0.522425
vt 0.634214 0.525409
vt 0.017005 0.627737
vt 0.074956 0.626158
vt 0.134977 0.625015
vt 0.527962 0.454554
vt 0.585469 0.471703
vt 0.640648 0.492702
vt 0.026947 0.694040
vt 0.082819 0.677747
vt 0.141055 0.658466
vt 0.556519 0.391245
vt 0.611171 0.422939
vt 0.657499 0.464132
vt 0.051764 0.755623
vt 0.105879 0.728525
vt 0.157242 0.688965
vt 0.948236 0.393934
vt 0.894121 0.421032
vt 0.842758 0.460592
vt 0.443481 0.758312
vt 0.388829 0.726617
vt 0.342501 0.685424
vt 0.613775 0.746532
vt 0.652718 0.781596
vt 0.674032 0.829469
vt 0.674032 0.881871
vt 0.652718 0.929743
vt 0.613775 0.964807
vt 0.563937 0.981001
vt 0.511822 0.975523
vt 0.466440 0.949322
vt 0.435639 0.906928
vt 0.424743 0.855670
vt 0.435638 0.804413
vt 0.466440 0.762018
vt 0.511822 0.735817
vt 0.563937 0.730339
vn -0.1940 -0.3515 -0.9158
vn 0.1940 -0.3515 -0.9158
vn 0.1940 -0.6937 -0.6937
vn -0.1940 -0.6937 -0.6937
vn -0.1940 -0.9796 0.0513
vn 0.1940 -0.9796 0.0513
vn 0.1940 -0.8741 0.4454
vn -0.1940 -0.8741 0.4454
vn 0.1940 -0.6174 0.7624
vn -0.1940 -0.6174 0.7624
vn 0.1940 -0.2539 0.9476
vn -0.1940 -0.2539 0.9476
vn 0.1940 0.1534 0.9689
vn -0.1940 0.1534 0.9689
vn 0.1940 0.5343 0.8227
vn -0.1940 0.5343 0.8227
vn 0.1940 0.8227 0.5343
vn -0.1940 0.8227 0.5343
vn 0.1940 0.9689 0.1534
vn -0.1940 0.9689 0.1534
vn 0.1940 0.9476 -0.2539
vn -0.1940 0.9476 -0.2539
vn 0.1940 0.7624 -0.6174
vn -0.1940 0.7624 -0.6174
vn 0.1940 0.4454 -0.8741
vn -0.1940 0.4454 -0.8741
vn 0.1940 0.0513 -0.9796
vn -0.1940 0.0513 -0.9796
vn -0.1940 -0.9158 -0.3515
vn 0.1940 -0.9158 -0.3515
vn 0.9765 -0.2013 -0.0772
vn 0.9765 -0.1524 -0.1524
vn 0.9765 -0.0772 -0.2013
vn 0.9765 0.0113 -0.2153
vn 0.9765 0.0979 -0.1921
vn 0.9765 0.1675 -0.1357
vn 0.9765 0.2082 -0.0558
vn 0.9765 0.2129 0.0337
vn 0.9765 0.1808 0.1174
vn 0.9765 0.1174 0.1808
vn 0.9765 0.0337 0.2129
vn 0.9765 -0.0558 0.2082
vn 0.9765 -0.1357 0.1675
vn 0.9765 -0.1921 0.0979
vn 0.9765 -0.2153 0.0113
vn -0.6880 -0.6774 -0.2600
vn -0.6880 -0.5131 -0.5131
vn -0.9765 -0.2013 -0.0772
vn -0.9765 -0.1524 -0.1524
vn 0.6880 -0.5131 -0.5131
vn 0.6880 -0.6774 -0.2600
vn -0.6880 -0.7246 0.0380
vn -0.9765 -0.2153 0.0113
vn 0.6880 -0.7246 0.0380
vn -0.6880 -0.6465 0.3294
vn -0.9765 -0.1921 0.0979
vn 0.6880 -0.6465 0.3294
vn -0.6880 -0.4566 0.5639
vn -0.9765 -0.1357 0.1675
vn 0.6880 -0.4566 0.5639
vn -0.6880 -0.1878 0.7009
vn -0.9765 -0.0558 0.2082
vn 0.6880 -0.1878 0.7009
vn -0.6880 0.1135 0.7167
vn -0.9765 0.0337 0.2129
vn 0.6880 0.1135 0.7167
vn -0.6880 0.3952 0.6086
vn -0.9765 0.1174 0.1808
vn 0.6880 0.3952 0.6086
vn -0.6880 0.6086 0.3952
vn -0.9765 0.1808 0.1174
vn 0.6880 0.6086 0.3952
vn -0.6880 0.7167 0.1135
vn -0.9765 0.2129 0.0337
vn 0.6880 0.7167 0.1135
vn -0.6880 0.7009 -0.1878
vn -0.9765 0.2082 -0.0558
vn 0.6880 0.7009 -0.1878
vn -0.6880 0.5639 -0.4566
vn -0.9765 0.1675 -0.1357
vn 0.6880 0.5639 -0.4566
vn -0.6880 0.3294 -0.6465
vn -0.9765 0.0979 -0.1921
vn 0.6880 0.3294 -0.6465
vn -0.6880 0.0380 -0.7246
vn -0.9765 0.0113 -0.2153
vn 0.6880 0.0380 -0.7246
vn -0.6880 -0.2600 -0.6774
vn -0.9765 -0.0772 -0.2013
vn 0.6880 -0.2600 -0.6774
usemtl None
s 1
f 86/1/1 89/2/2 5/3/3 2/4/4
f 14/5/5 17/6/6 23/7/7 20/8/8
f 20/8/8 23/7/7 29/9/9 26/10/10
f 26/10/10 29/9/9 35/11/11 32/12/12
f 32/12/12 35/11/11 41/13/13 38/14/14
f 38/14/14 41/13/13 47/15/15 44/16/16
f 44/16/16 47/15/15 53/17/17 50/18/18
f 50/18/18 53/17/17 59/19/19 56/20/20
f 56/20/20 59/19/19 65/21/21 62/22/22
f 62/22/22 65/21/21 71/23/23 68/24/24
f 68/24/24 71/23/23 77/25/25 74/26/26
f 74/26/26 77/25/25 83/27/27 80/28/28
f 80/28/28 83/27/27 89/29/2 86/30/1
f 8/31/29 11/32/30 17/6/6 14/5/5
f 10/33/31 4/34/32 88/35/33 82/36/34 76/37/35 70/38/36 64/39/37 58/40/38 52/41/39 46/42/40 40/43/41 34/44/42 28/45/43 22/46/44 16/47/45
f 2/4/4 5/3/3 11/32/30 8/31/29
f 2/48/4 8/49/29 9/50/46 3/51/47
f 3/51/47 9/50/46 7/52/48 1/53/49
f 11/54/30 5/55/3 6/56/50 12/57/51
f 12/57/51 6/56/50 4/58/32 10/59/31
f 8/49/29 14/60/5 15/61/52 9/50/46
f 9/50/46 15/61/52 13/62/53 7/52/48
f 17/63/6 11/54/30 12/57/51 18/64/54
f 18/64/54 12/57/51 10/59/31 16/65/45
f 14/60/5 20/66/8 21/67/55 15/61/52
f 15/61/52 21/67/55 19/68/56 13/62/53
f 23/69/7 17/63/6 18/64/54 24/70/57
f 24/70/57 18/64/54 16/65/45 22/71/44
f 20/66/8 26/72/10 27/73/58 21/67/55
f 21/67/55 27/73/58 25/74/59 19/68/56
f 29/75/9 23/69/7 24/70/57 30/76/60
f 30/76/60 24/70/57 22/71/44 28/77/43
f 26/72/10 32/78/12 33/79/61 27/73/58
f 27/73/58 33/79/61 31/80/62 25/74/59
f 35/81/11 29/75/9 30/76/60 36/82/63
f 36/82/63 30/76/60 28/77/43 34/83/42
f 32/78/12 38/84/14 39/85/64 33/79/61
f 33/79/61 39/85/64 37/86/65 31/80/62
f 41/87/13 35/81/11 36/82/63 42/88/66
f 42/88/66 36/82/63 34/83/42 40/89/41
f 38/84/14 44/90/16 45/91/67 39/85/64
f 39/85/64 45/91/67 43/92/68 37/86/65
f 47/93/15 41/87/13 42/88/66 48/94/69
f 48/94/69 42/88/66 40/89/41 46/95/40
f 44/90/16 50/96/18 51/97/70 45/91/67
f 45/91/67 51/97/70 49/98/71 43/92/68
f 53/99/17 47/93/15 48/94/69 54/100/72
f 54/100/72 48/94/69 46/95/40 52/101/39
f 50/96/18 56/102/20 57/103/73 51/97/70
f 51/97/70 57/103/73 55/104/74 49/98/71
f 59/105/19 53/99/17 54/100/72 60/106/75
f 60/106/75 54/100/72 52/101/39 58/107/38
f 56/102/20 62/108/22 63/109/76 57/103/73
f 57/103/73 63/109/76 61/110/77 55/104/74
f 65/111/21 59/105/19 60/106/75 66/112/78
f 66/112/78 60/106/75 58/107/38 64/113/37
f 62/108/22 68/114/24 69/115/79 63/109/76
f 63/109/76 69/115/79 67/116/80 61/110/77
f 71/117/23 65/111/21 66/112/78 72/118/81
f 72/118/81 66/112/78 64/113/37 70/119/36
f 68/114/24 74/120/26 75/121/82 69/115/79
f 69/115/79 75/121/82 73/122/83 67/116/80
f 77/123/25 71/117/23 72/118/81 78/124/84
f 78/124/84 72/118/81 70/119/36 76/125/35
f 74/120/26 80/126/28 81/127/85 75/121/82
f 75/121/82 81/127/85 79/128/86 73/122/83
f 83/129/27 77/123/25 78/124/84 84/130/87
f 84/130/87 78/124/84 76/125/35 82/131/34
f 80/126/28 86/132/1 87/133/88 81/127/85
f 81/127/85 87/133/88 85/134/89 79/128/86
f 89/135/2 83/129/27 84/130/87 90/136/90
f 90/136/90 84/130/87 82/131/34 88/137/33
f 86/138/1 2/48/4 3/51/47 87/139/88
f 87/139/88 3/51/47 1/53/49 85/140/89
f 5/55/3 89/141/2 90/142/90 6/56/50
f 6/56/50 90/142/90 88/143/33 4/58/32
f 1/144/49 7/145/48 13/146/53 19/147/56 25/148/59 31/149/62 37/150/65 43/151/68 49/152/71 55/153/74 61/154/77 67/155/80 73/156/83 79/157/86 85/158/89
