# Blender v2.79 (sub 0) OBJ File: ''
# www.blender.org
mtllib at_silencer.mtl
o at_silencer_at_silencer_mesh
v 0.000000 0.027379 0.254118
v 0.000000 0.031916 0.248410
v 0.000000 0.030587 0.252447
v -0.000000 0.027379 -0.006412
v -0.000000 0.031916 -0.000704
v -0.000000 0.030587 -0.004740
v -0.013689 0.023711 0.254118
v -0.015958 0.027640 0.248410
v -0.015293 0.026489 0.252447
v -0.013690 0.023711 -0.006412
v -0.015958 0.027640 -0.000704
v -0.015293 0.026489 -0.004740
v -0.023711 0.013689 0.254118
v -0.027640 0.015958 0.248410
v -0.026489 0.015293 0.252447
v -0.023711 0.013689 -0.006412
v -0.027640 0.015958 -0.000704
v -0.026489 0.015293 -0.004740
v -0.027379 0.000000 0.254119
v -0.031915 -0.000000 0.248410
v -0.030587 0.000000 0.252447
v -0.027379 -0.000000 -0.006412
v -0.031916 -0.000000 -0.000704
v -0.030587 -0.000000 -0.004740
v -0.023711 -0.013690 0.254119
v -0.027640 -0.015958 0.248410
v -0.026489 -0.015293 0.252447
v -0.023711 -0.013689 -0.006412
v -0.027640 -0.015958 -0.000704
v -0.026489 -0.015293 -0.004740
v -0.013689 -0.023711 0.254118
v -0.015958 -0.027640 0.248410
v -0.015293 -0.026489 0.252447
v -0.013690 -0.023711 -0.006412
v -0.015958 -0.027640 -0.000704
v -0.015293 -0.026489 -0.004740
v 0.000000 -0.027379 0.254118
v 0.000000 -0.031916 0.248410
v 0.000000 -0.030587 0.252447
v -0.000000 -0.027379 -0.006412
v -0.000000 -0.031916 -0.000704
v -0.000000 -0.030587 -0.004740
v 0.013690 -0.023711 0.254118
v 0.015958 -0.027640 0.248410
v 0.015293 -0.026489 0.252447
v 0.013689 -0.023711 -0.006412
v 0.015958 -0.027640 -0.000704
v 0.015293 -0.026489 -0.004740
v 0.023711 -0.013690 0.254118
v 0.027640 -0.015958 0.248410
v 0.026489 -0.015293 0.252447
v 0.023711 -0.013690 -0.006412
v 0.027640 -0.015958 -0.000704
v 0.026489 -0.015293 -0.004740
v 0.027379 -0.000000 0.254118
v 0.031916 -0.000000 0.248410
v 0.030587 -0.000000 0.252447
v 0.027379 -0.000000 -0.006412
v 0.031916 -0.000000 -0.000704
v 0.030587 -0.000000 -0.004740
v 0.023711 0.013689 0.254118
v 0.027640 0.015958 0.248410
v 0.026489 0.015293 0.252447
v 0.023711 0.013689 -0.006412
v 0.027640 0.015958 -0.000704
v 0.026489 0.015293 -0.004740
v 0.013690 0.023711 0.254118
v 0.015958 0.027640 0.248410
v 0.015294 0.026489 0.252447
v 0.013690 0.023711 -0.006412
v 0.015958 0.027640 -0.000704
v 0.015293 0.026489 -0.004740
vt 0.149311 0.044174
vt 0.149311 0.689104
vt 0.088893 0.689104
vt 0.088894 0.044174
vt 0.863924 0.044174
vt 0.863924 0.689103
vt 0.803506 0.689103
vt 0.803507 0.044174
vt 0.751184 0.689103
vt 0.751184 0.044174
vt 0.274775 0.689104
vt 0.274775 0.044174
vt 0.327098 0.044174
vt 0.327098 0.689104
vt 0.387515 0.044174
vt 0.387515 0.689104
vt 0.439838 0.044174
vt 0.439838 0.689104
vt 0.512979 0.689104
vt 0.512979 0.044174
vt 0.565302 0.044174
vt 0.565302 0.689104
vt 0.625719 0.044174
vt 0.625720 0.689104
vt 0.678042 0.044174
vt 0.678042 0.689104
vt 0.201634 0.044174
vt 0.201634 0.689104
vt 0.916247 0.044174
vt 0.916247 0.689103
vt 0.927728 0.931928
vt 0.883642 0.955826
vt 0.832735 0.955826
vt 0.788649 0.931929
vt 0.763195 0.890536
vt 0.763195 0.842741
vt 0.788648 0.801349
vt 0.832735 0.777451
vt 0.883641 0.777451
vt 0.927728 0.801349
vt 0.953181 0.842741
vt 0.953181 0.890536
vt 0.036571 0.689104
vt 0.036571 0.044174
vt 0.040007 0.033724
vt 0.090151 0.033724
vt 0.065522 0.793699
vt 0.115666 0.767002
vt 0.118703 0.777451
vt 0.073817 0.801349
vt 0.090151 0.699553
vt 0.040007 0.699553
vt 0.934994 0.939578
vt 0.885742 0.966276
vt 0.862666 0.033724
vt 0.912811 0.033724
vt 0.173568 0.767002
vt 0.170532 0.777451
vt 0.912811 0.699553
vt 0.862666 0.699553
vt 0.963429 0.893336
vt 0.804764 0.033724
vt 0.223713 0.793699
vt 0.215417 0.801349
vt 0.804764 0.699553
vt 0.963429 0.839941
vt 0.754620 0.033724
vt 0.252664 0.839941
vt 0.241332 0.842741
vt 0.754620 0.699553
vt 0.934994 0.793699
vt 0.328356 0.699553
vt 0.278211 0.699553
vt 0.252664 0.893336
vt 0.241332 0.890536
vt 0.278211 0.033724
vt 0.328355 0.033724
vt 0.885742 0.767002
vt 0.386258 0.699553
vt 0.223713 0.939578
vt 0.215417 0.931928
vt 0.386257 0.033724
vt 0.828871 0.767002
vt 0.436402 0.699553
vt 0.173568 0.966276
vt 0.170532 0.955826
vt 0.436402 0.033724
vt 0.779619 0.793699
vt 0.566560 0.699553
vt 0.516415 0.699553
vt 0.115666 0.966276
vt 0.118702 0.955826
vt 0.516415 0.033724
vt 0.566560 0.033724
vt 0.751184 0.839941
vt 0.624462 0.699553
vt 0.065522 0.939578
vt 0.073817 0.931929
vt 0.624462 0.033724
vt 0.751184 0.893336
vt 0.674606 0.699553
vt 0.036571 0.893336
vt 0.047902 0.890536
vt 0.674606 0.033724
vt 0.779619 0.939578
vt 0.148053 0.033724
vt 0.198198 0.033724
vt 0.036571 0.839941
vt 0.047902 0.842741
vt 0.198198 0.699553
vt 0.148053 0.699553
vt 0.828871 0.966276
vn 0.4940 0.8556 0.1544
vn 0.4940 0.8556 -0.1544
vn 0.0000 0.9880 -0.1544
vn 0.0000 0.9880 0.1544
vn -0.8556 0.4940 0.1544
vn -0.8556 0.4940 -0.1544
vn -0.9880 0.0000 -0.1544
vn -0.9880 0.0000 0.1544
vn -0.8556 -0.4940 -0.1544
vn -0.8556 -0.4940 0.1544
vn -0.4940 -0.8556 -0.1544
vn -0.4940 -0.8556 0.1544
vn 0.0000 -0.9880 -0.1544
vn 0.0000 -0.9880 0.1544
vn 0.4940 -0.8556 -0.1544
vn 0.4940 -0.8556 0.1544
vn 0.8556 -0.4940 -0.1544
vn 0.8556 -0.4940 0.1544
vn 0.9880 0.0000 -0.1544
vn 0.9880 0.0000 0.1544
vn 0.8556 0.4940 -0.1544
vn 0.8556 0.4940 0.1544
vn -0.4940 0.8556 0.1544
vn -0.4940 0.8556 -0.1544
vn -0.1373 0.2378 -0.9615
vn 0.0000 0.2745 -0.9615
vn 0.1373 0.2378 -0.9615
vn 0.2378 0.1373 -0.9615
vn 0.2745 0.0000 -0.9615
vn 0.2378 -0.1373 -0.9615
vn 0.1373 -0.2378 -0.9615
vn 0.0000 -0.2745 -0.9615
vn -0.1373 -0.2378 -0.9615
vn -0.2378 -0.1373 -0.9615
vn -0.2745 0.0000 -0.9615
vn -0.2378 0.1373 -0.9615
vn -0.3930 0.6807 0.6182
vn 0.0000 0.7860 0.6182
vn -0.1373 0.2378 0.9615
vn 0.0000 0.2745 0.9615
vn 0.0000 0.7860 -0.6182
vn -0.3930 0.6807 -0.6182
vn -0.6807 0.3930 0.6182
vn -0.2378 0.1373 0.9615
vn -0.6807 0.3930 -0.6182
vn -0.7860 0.0000 0.6182
vn -0.2745 0.0000 0.9615
vn -0.7860 0.0000 -0.6182
vn -0.6807 -0.3930 0.6182
vn -0.2378 -0.1373 0.9615
vn -0.6807 -0.3930 -0.6182
vn -0.3930 -0.6807 0.6182
vn -0.1373 -0.2378 0.9615
vn -0.3930 -0.6807 -0.6182
vn 0.0000 -0.7860 0.6182
vn 0.0000 -0.2745 0.9615
vn 0.0000 -0.7860 -0.6182
vn 0.3930 -0.6807 0.6182
vn 0.1373 -0.2378 0.9615
vn 0.3930 -0.6807 -0.6182
vn 0.6807 -0.3930 0.6182
vn 0.2378 -0.1373 0.9615
vn 0.6807 -0.3930 -0.6182
vn 0.7860 0.0000 0.6182
vn 0.2745 0.0000 0.9615
vn 0.7860 0.0000 -0.6182
vn 0.6807 0.3930 0.6182
vn 0.2378 0.1373 0.9615
vn 0.6807 0.3930 -0.6182
vn 0.3930 0.6807 0.6182
vn 0.1373 0.2378 0.9615
vn 0.3930 0.6807 -0.6182
usemtl silencer_mat
s 1
f 68/1/1 71/2/2 5/3/3 2/4/4
f 14/5/5 17/6/6 23/7/7 20/8/8
f 20/8/8 23/7/7 29/9/9 26/10/10
f 26/11/10 29/12/9 35/13/11 32/14/12
f 32/14/12 35/13/11 41/15/13 38/16/14
f 38/16/14 41/15/13 47/17/15 44/18/16
f 44/19/16 47/20/15 53/21/17 50/22/18
f 50/22/18 53/21/17 59/23/19 56/24/20
f 56/24/20 59/23/19 65/25/21 62/26/22
f 62/27/22 65/28/21 71/2/2 68/1/1
f 8/29/23 11/30/24 17/6/6 14/5/5
f 10/31/25 4/32/26 70/33/27 64/34/28 58/35/29 52/36/30 46/37/31 40/38/32 34/39/33 28/40/34 22/41/35 16/42/36
f 2/4/4 5/3/3 11/43/24 8/44/23
f 2/4/4 8/44/23 9/45/37 3/46/38
f 3/47/38 9/48/37 7/49/39 1/50/40
f 11/43/24 5/3/3 6/51/41 12/52/42
f 12/53/42 6/54/41 4/32/26 10/31/25
f 8/29/23 14/5/5 15/55/43 9/56/37
f 9/48/37 15/57/43 13/58/44 7/49/39
f 17/6/6 11/30/24 12/59/42 18/60/45
f 18/61/45 12/53/42 10/31/25 16/42/36
f 14/5/5 20/8/8 21/62/46 15/55/43
f 15/57/43 21/63/46 19/64/47 13/58/44
f 23/7/7 17/6/6 18/60/45 24/65/48
f 24/66/48 18/61/45 16/42/36 22/41/35
f 20/8/8 26/10/10 27/67/49 21/62/46
f 21/63/46 27/68/49 25/69/50 19/64/47
f 29/9/9 23/7/7 24/65/48 30/70/51
f 30/71/51 24/66/48 22/41/35 28/40/34
f 26/11/10 32/14/12 33/72/52 27/73/49
f 27/68/49 33/74/52 31/75/53 25/69/50
f 35/13/11 29/12/9 30/76/51 36/77/54
f 36/78/54 30/71/51 28/40/34 34/39/33
f 32/14/12 38/16/14 39/79/55 33/72/52
f 33/74/52 39/80/55 37/81/56 31/75/53
f 41/15/13 35/13/11 36/77/54 42/82/57
f 42/83/57 36/78/54 34/39/33 40/38/32
f 38/16/14 44/18/16 45/84/58 39/79/55
f 39/80/55 45/85/58 43/86/59 37/81/56
f 47/17/15 41/15/13 42/82/57 48/87/60
f 48/88/60 42/83/57 40/38/32 46/37/31
f 44/19/16 50/22/18 51/89/61 45/90/58
f 45/85/58 51/91/61 49/92/62 43/86/59
f 53/21/17 47/20/15 48/93/60 54/94/63
f 54/95/63 48/88/60 46/37/31 52/36/30
f 50/22/18 56/24/20 57/96/64 51/89/61
f 51/91/61 57/97/64 55/98/65 49/92/62
f 59/23/19 53/21/17 54/94/63 60/99/66
f 60/100/66 54/95/63 52/36/30 58/35/29
f 56/24/20 62/26/22 63/101/67 57/96/64
f 57/97/64 63/102/67 61/103/68 55/98/65
f 65/25/21 59/23/19 60/99/66 66/104/69
f 66/105/69 60/100/66 58/35/29 64/34/28
f 62/27/22 68/1/1 69/106/70 63/107/67
f 63/102/67 69/108/70 67/109/71 61/103/68
f 71/2/2 65/28/21 66/110/69 72/111/72
f 72/112/72 66/105/69 64/34/28 70/33/27
f 68/1/1 2/4/4 3/46/38 69/106/70
f 69/108/70 3/47/38 1/50/40 67/109/71
f 5/3/3 71/2/2 72/111/72 6/51/41
f 6/54/41 72/112/72 70/33/27 4/32/26
f 1/50/40 7/49/39 13/58/44 19/64/47 25/69/50 31/75/53 37/81/56 43/86/59 49/92/62 55/98/65 61/103/68 67/109/71
