# Blender v2.79 (sub 0) OBJ File: ''
# www.blender.org
mtllib he_grenade.mtl
o he_grenade_he_grenade_mesh
v 0.000000 -0.100000 0.000000
v 0.072361 -0.044722 0.052573
v -0.027639 -0.044722 0.085065
v -0.089443 -0.044722 0.000000
v -0.027639 -0.044722 -0.085065
v 0.072361 -0.044722 -0.052573
v 0.027639 0.044722 0.085065
v -0.072361 0.044722 0.052573
v -0.072361 0.044722 -0.052573
v 0.027639 0.044722 -0.085065
v 0.089443 0.044722 0.000000
v -0.016246 -0.085065 0.050000
v 0.042532 -0.085065 0.030901
v 0.026287 -0.052574 0.080901
v 0.085065 -0.052574 0.000000
v 0.042532 -0.085065 -0.030901
v -0.052573 -0.085065 0.000000
v -0.068819 -0.052574 0.050000
v -0.016246 -0.085065 -0.050000
v -0.068819 -0.052574 -0.050000
v 0.026287 -0.052574 -0.080901
v 0.095106 0.000000 0.030901
v 0.095106 0.000000 -0.030901
v 0.000000 0.000000 0.100000
v 0.058779 0.000000 0.080902
v -0.095106 0.000000 0.030901
v -0.058779 0.000000 0.080902
v -0.058779 0.000000 -0.080902
v -0.095106 0.000000 -0.030901
v 0.058779 0.000000 -0.080902
v 0.000000 0.000000 -0.100000
v 0.068819 0.052574 0.050000
v -0.026287 0.052574 0.080901
v -0.085065 0.052574 0.000000
v -0.026287 0.052574 -0.080901
v 0.068819 0.052574 -0.050000
v 0.009995 0.086023 0.030762
v 0.032346 0.086023 0.000000
v -0.026168 0.086023 0.019012
v -0.026168 0.086023 -0.019012
v 0.009995 0.086023 -0.030762
v 0.032346 0.121766 0.000000
v -0.000000 0.130955 0.000000
v 0.009995 0.121766 0.030762
v -0.026168 0.121766 0.019012
v -0.026168 0.121766 -0.019012
v 0.009995 0.121766 -0.030762
v -0.015515 0.088666 -0.082612
v -0.015515 0.082476 -0.079984
v -0.036408 0.086343 -0.077187
v -0.036408 0.092533 -0.079816
v -0.029853 0.003090 -0.111366
v -0.029853 -0.003099 -0.108737
v -0.050746 0.000767 -0.105941
v -0.050746 0.006957 -0.108570
v -0.031288 0.095633 -0.048100
v -0.002760 0.094307 -0.055373
v -0.031288 0.110013 -0.049414
v -0.002760 0.108687 -0.056687
v -0.024300 0.053268 -0.104239
v -0.045193 0.057135 -0.101443
v -0.045193 0.050946 -0.098814
v -0.024300 0.047079 -0.101610
v -0.029124 0.028179 -0.110007
v -0.050017 0.032046 -0.107211
v -0.050017 0.025857 -0.104582
v -0.029124 0.021990 -0.107379
vt 0.508090 0.521281
vt 0.577974 0.458604
vt 0.577974 0.584108
vt 0.381108 0.298666
vt 0.294670 0.240620
vt 0.366427 0.203845
vt 0.465572 0.622837
vt 0.396106 0.521266
vt 0.465574 0.419765
vt 0.475732 0.268094
vt 0.770637 0.212448
vt 0.667998 0.167026
vt 0.776812 0.102190
vt 0.099704 0.618431
vt 0.002060 0.574684
vt 0.093073 0.510843
vt 0.690043 0.636050
vt 0.595717 0.642298
vt 0.622049 0.550053
vt 0.381108 0.093908
vt 0.359626 0.012508
vt 0.471530 0.029486
vt 0.585513 0.112336
vt 0.584956 0.019892
vt 0.667999 0.043345
vt 0.869834 0.173950
vt 0.202073 0.574681
vt 0.747686 0.550052
vt 0.475732 0.147741
vt 0.280952 0.245846
vt 0.191619 0.313236
vt 0.157148 0.176335
vt 0.261790 0.043613
vt 0.290550 0.135808
vt 0.150219 0.103201
vt 0.286636 0.513602
vt 0.202949 0.449227
vt 0.268889 0.394946
vt 0.795841 0.451246
vt 0.684236 0.441427
vt 0.739629 0.348641
vt 0.093479 0.345471
vt 0.002060 0.289114
vt 0.089352 0.212363
vt 0.085008 0.686171
vt 0.073266 0.756864
vt 0.002060 0.752731
vt 0.013801 0.682038
vt 0.040522 0.161494
vt 0.867890 0.414925
vt 0.698453 0.689572
vt 0.655557 0.748836
vt 0.596521 0.705623
vt 0.639417 0.646360
vt 0.662331 0.348641
vt 0.582095 0.451246
vt 0.953471 0.596567
vt 0.997940 0.659739
vt 0.937361 0.700334
vt 0.892892 0.637161
vt 0.078140 0.094028
vt 0.162134 0.002031
vt 0.085008 0.807956
vt 0.013801 0.803823
vt 0.211757 0.734724
vt 0.151226 0.730144
vt 0.159763 0.682038
vt 0.202487 0.692117
vt 0.580835 0.093737
vt 0.567069 0.203216
vt 0.559920 0.002031
vt 0.101195 0.404994
vt 0.002935 0.449228
vt 0.057105 0.349532
vt 0.869834 0.050269
vt 0.770638 0.002031
vt 0.290550 0.329321
vt 0.471530 0.344579
vt 0.580835 0.288474
vt 0.861190 0.533673
vt 0.799002 0.642298
vt 0.288304 0.616361
vt 0.178427 0.677977
vt 0.818511 0.283135
vt 0.340129 0.419790
vt 0.412858 0.348641
vt 0.294670 0.521325
vt 0.340128 0.622863
vt 0.412855 0.694128
vt 0.054813 0.677977
vt 0.521997 0.685706
vt 0.693770 0.278855
vt 0.294670 0.120267
vt 0.521999 0.357129
vt 0.584958 0.220011
vt 0.702573 0.740207
vt 0.745199 0.684181
vt 0.771622 0.735968
vt 0.819013 0.709340
vt 0.822008 0.780914
vt 0.750044 0.799991
vt 0.882188 0.189514
vt 0.926274 0.190262
vt 0.933198 0.240166
vt 0.889113 0.239417
vt 0.903507 0.557764
vt 0.877598 0.571912
vt 0.872010 0.500160
vt 0.885575 0.497497
vt 0.873955 0.007406
vt 0.934177 0.002031
vt 0.924451 0.056103
vt 0.880366 0.055355
vt 0.583576 0.768185
vt 0.608908 0.783540
vt 0.595480 0.842561
vt 0.582095 0.839139
vt 0.934177 0.251258
vt 0.890092 0.250510
vt 0.956958 0.379591
vt 0.943394 0.382253
vt 0.984375 0.351304
vt 0.997940 0.348641
vt 0.133210 0.731833
vt 0.089128 0.734310
vt 0.094532 0.684514
vt 0.138614 0.682038
vt 0.645456 0.961733
vt 0.658841 0.965156
vt 0.698453 0.997969
vt 0.685067 0.994547
vt 0.763379 0.646360
vt 0.822008 0.661446
vt 0.221074 0.792532
vt 0.142734 0.792532
vt 0.625612 0.923379
vt 0.612227 0.919957
vt 0.138614 0.867018
vt 0.094532 0.869494
vt 0.091007 0.787462
vt 0.135088 0.784986
vt 0.907296 0.421641
vt 0.920861 0.418979
vt 0.925928 0.137098
vt 0.881843 0.136349
vn 0.0000 -1.0000 0.0000
vn 0.4253 -0.8506 0.3090
vn -0.1625 -0.8506 0.5000
vn 0.7236 -0.4472 0.5257
vn 0.8506 -0.5257 0.0000
vn -0.5257 -0.8506 0.0000
vn -0.1625 -0.8506 -0.5000
vn 0.4253 -0.8506 -0.3090
vn 0.9510 0.0000 0.3090
vn -0.2764 -0.4472 0.8506
vn 0.2629 -0.5257 0.8090
vn 0.0000 0.0000 1.0000
vn -0.8944 -0.4472 0.0000
vn -0.6882 -0.5257 0.5000
vn -0.9510 0.0000 0.3090
vn -0.2764 -0.4472 -0.8506
vn -0.6882 -0.5257 -0.5000
vn -0.5878 0.0000 -0.8090
vn 0.7236 -0.4472 -0.5257
vn 0.2629 -0.5257 -0.8090
vn 0.5878 0.0000 -0.8090
vn 0.5878 0.0000 0.8090
vn -0.5878 0.0000 0.8090
vn -0.9510 0.0000 -0.3090
vn 0.0000 0.0000 -1.0000
vn 0.9510 0.0000 -0.3090
vn 0.2646 0.5162 0.8145
vn 0.6497 0.5959 0.4720
vn 0.2430 0.6176 0.7479
vn -0.6929 0.5162 0.5034
vn -0.2481 0.5959 0.7638
vn -0.6362 0.6176 0.4622
vn -0.6929 0.5162 -0.5034
vn -0.8031 0.5959 0.0000
vn -0.8714 0.4167 -0.2587
vn 0.2646 0.5162 -0.8145
vn -0.2481 0.5959 -0.7638
vn 0.5513 0.4172 -0.7224
vn 0.8564 0.5162 0.0000
vn 0.6497 0.5959 -0.4720
vn 0.7864 0.6176 0.0000
vn 0.2652 0.5131 0.8163
vn -0.6944 0.5131 0.5045
vn 0.5018 0.6795 -0.5351
vn 0.8583 0.5131 0.0000
vn -0.7169 0.6832 -0.1389
vn 0.6718 -0.6574 -0.3413
vn -0.7978 -0.5854 0.1439
vn -0.7454 -0.4017 0.5319
vn 0.7598 -0.6203 0.1947
vn 0.0000 1.0000 0.0000
vn -0.8010 0.1963 -0.5655
vn 0.5334 0.0346 -0.8451
vn 0.5698 -0.1657 -0.8049
vn -0.7386 -0.0909 -0.6680
vn -0.7268 0.6510 -0.2191
vn -0.6773 0.5900 -0.4394
vn 0.5412 0.5905 -0.5987
vn 0.5466 0.4435 -0.7103
vn 0.4707 -0.8791 0.0756
vn -0.5956 -0.7697 0.2297
vn -0.6717 -0.0707 0.7374
vn 0.7788 -0.1315 0.6132
vn 0.8102 -0.3706 0.4541
vn 0.5732 0.2022 -0.7941
vn -0.6325 -0.1628 0.7572
vn -0.7393 0.3826 -0.5540
usemtl Material.001
s 1
f 1/1/1 13/2/2 12/3/3
f 2/4/4 13/5/2 15/6/5
f 1/1/1 12/3/3 17/7/6
f 1/1/1 17/7/6 19/8/7
f 1/1/1 19/8/7 16/9/8
f 2/4/4 15/6/5 22/10/9
f 3/11/10 14/12/11 24/13/12
f 4/14/13 18/15/14 26/16/15
f 5/17/16 20/18/17 28/19/18
f 6/20/19 21/21/20 30/22/21
f 2/23/4 22/24/9 25/25/22
f 3/11/10 24/13/12 27/26/23
f 4/14/13 26/16/15 29/27/24
f 5/17/16 28/19/18 31/28/25
f 6/20/19 30/22/21 23/29/26
f 7/30/27 32/31/28 37/32/29
f 8/33/30 33/34/31 39/35/32
f 9/36/33 34/37/34 40/38/35
f 10/39/36 35/40/37 41/41/38
f 11/42/39 36/43/40 38/44/41
f 39/45/32 37/46/29 44/47/42 45/48/43
f 38/44/41 36/43/40 41/49/38
f 36/50/40 10/39/36 41/41/38
f 38/51/41 41/52/38 47/53/44 42/54/45
f 41/41/38 35/40/37 40/55/35
f 35/40/37 9/56/33 40/55/35
f 40/57/35 39/58/32 45/59/43 46/60/46
f 40/61/35 34/62/34 39/35/32
f 34/62/34 8/33/30 39/35/32
f 37/46/29 38/63/41 42/64/45 44/47/42
f 39/35/32 33/34/31 37/32/29
f 33/34/31 7/30/27 37/32/29
f 57/65/47 56/66/48 50/67/49 49/68/50
f 37/32/29 32/31/28 38/44/41
f 32/31/28 11/42/39 38/44/41
f 23/29/26 36/69/40 11/70/39
f 23/29/26 30/22/21 36/69/40
f 30/22/21 10/71/36 36/69/40
f 31/28/25 35/40/37 10/39/36
f 31/28/25 28/19/18 35/40/37
f 28/19/18 9/56/33 35/40/37
f 29/27/24 34/37/34 9/36/33
f 29/27/24 26/16/15 34/37/34
f 26/16/15 8/72/30 34/37/34
f 27/73/23 33/74/31 8/72/30
f 27/26/23 24/13/12 33/75/31
f 24/13/12 7/76/27 33/75/31
f 25/77/22 32/31/28 7/30/27
f 25/78/22 22/10/9 32/79/28
f 22/10/9 11/70/39 32/79/28
f 30/80/21 31/28/25 10/39/36
f 30/80/21 21/81/20 31/28/25
f 21/81/20 5/17/16 31/28/25
f 28/82/18 29/27/24 9/36/33
f 28/82/18 20/83/17 29/27/24
f 20/83/17 4/14/13 29/27/24
f 26/16/15 27/73/23 8/72/30
f 26/16/15 18/15/14 27/73/23
f 18/84/14 3/11/10 27/26/23
f 24/13/12 25/25/22 7/76/27
f 24/13/12 14/12/11 25/25/22
f 14/12/11 2/23/4 25/25/22
f 22/10/9 23/29/26 11/70/39
f 22/10/9 15/6/5 23/29/26
f 15/6/5 6/20/19 23/29/26
f 16/9/8 21/85/20 6/86/19
f 16/9/8 19/8/7 21/85/20
f 19/8/7 5/87/16 21/85/20
f 19/8/7 20/88/17 5/87/16
f 19/8/7 17/7/6 20/88/17
f 17/7/6 4/89/13 20/88/17
f 17/90/6 18/15/14 4/14/13
f 17/7/6 12/3/3 18/91/14
f 12/92/3 3/11/10 18/84/14
f 15/6/5 16/93/8 6/20/19
f 15/94/5 13/2/2 16/9/8
f 13/2/2 1/1/1 16/9/8
f 12/92/3 14/12/11 3/11/10
f 12/92/3 13/95/2 14/12/11
f 13/95/2 2/23/4 14/12/11
f 42/96/45 47/97/44 43/98/51
f 47/97/44 46/99/46 43/98/51
f 46/99/46 45/100/43 43/98/51
f 45/100/43 44/101/42 43/98/51
f 44/101/42 42/96/45 43/98/51
f 65/102/52 64/103/53 52/104/54 55/105/55
f 56/106/48 58/107/56 51/108/57 50/109/49
f 58/110/56 59/111/58 48/112/59 51/113/57
f 59/114/58 57/115/47 49/116/50 48/117/59
f 53/118/60 54/119/61 55/105/55 52/104/54
f 66/120/62 65/121/52 55/122/55 54/123/61
f 67/124/63 66/125/62 54/126/61 53/127/60
f 64/128/53 67/129/63 53/130/60 52/131/54
f 47/53/44 41/52/38 57/115/47 59/114/58
f 46/99/46 47/97/44 59/132/58 58/133/56
f 40/57/35 46/60/46 58/107/56 56/106/48
f 41/134/38 40/135/35 56/66/48 57/65/47
f 48/117/59 49/116/50 63/136/64 60/137/65
f 49/138/50 50/139/49 62/140/66 63/141/64
f 50/109/49 51/108/57 61/142/67 62/143/66
f 51/113/57 48/112/59 60/144/65 61/145/67
f 60/137/65 63/136/64 67/129/63 64/128/53
f 63/141/64 62/140/66 66/125/62 67/124/63
f 62/143/66 61/142/67 65/121/52 66/120/62
f 61/145/67 60/144/65 64/103/53 65/102/52
